<svg width="40" height="41" viewBox="0 0 40 41" fill="none" xmlns="http://www.w3.org/2000/svg">
<rect x="1" y="1.74219" width="38" height="38" rx="19" fill="#151E21"/>
<rect x="1" y="1.74219" width="38" height="38" rx="19" stroke="#354044" stroke-width="2"/>
<path d="M11.2929 14.0351C10.9024 14.4256 10.9024 15.0588 11.2929 15.4493C11.6834 15.8398 12.3166 15.8398 12.7071 15.4493L14 14.1564L14 29.7422C14 30.2945 14.4477 30.7422 15 30.7422C15.5523 30.7422 16 30.2945 16 29.7422L16 14.1564L17.2929 15.4493C17.6834 15.8398 18.3166 15.8398 18.7071 15.4493C19.0976 15.0588 19.0976 14.4256 18.7071 14.0351L15.7071 11.0351C15.3166 10.6446 14.6834 10.6446 14.2929 11.0351L11.2929 14.0351Z" fill="#ECF23D"/>
<path d="M28.7071 27.4493C29.0976 27.0588 29.0976 26.4256 28.7071 26.0351C28.3166 25.6446 27.6834 25.6446 27.2929 26.0351L26 27.328V11.7422C26 11.1899 25.5523 10.7422 25 10.7422C24.4477 10.7422 24 11.1899 24 11.7422L24 27.328L22.7071 26.0351C22.3166 25.6446 21.6834 25.6446 21.2929 26.0351C20.9024 26.4256 20.9024 27.0588 21.2929 27.4493L24.2929 30.4493C24.6834 30.8398 25.3166 30.8398 25.7071 30.4493L28.7071 27.4493Z" fill="#ECF23D"/>
</svg>
