<svg width="76" height="84" viewBox="0 0 76 84" fill="none" xmlns="http://www.w3.org/2000/svg">
<rect width="76" height="84" rx="16" fill="#ECF23D"/>
<path d="M37.25 25.9688L18.6875 56.4375C18.5 56.7188 18.5 56.9062 18.5 57.1875C18.5 57.9375 19.0625 58.5 19.8125 58.5H56.0938C56.8438 58.5 57.5 57.9375 57.5 57.1875C57.5 56.9062 57.4062 56.7188 57.2188 56.4375L38.6562 25.9688C38.5625 25.6875 38.2812 25.5 38 25.5C37.625 25.5 37.4375 25.6875 37.25 25.9688ZM33.4062 23.625C34.3438 22.0312 36.125 21 38 21C39.7812 21 41.5625 22.0312 42.5 23.625L61.0625 54.0938C61.625 55.0312 62 56.0625 62 57.1875C62 60.375 59.375 63 56.0938 63H19.8125C16.625 63 14 60.375 14 57.1875C14 56.0625 14.2812 55.0312 14.8438 54.0938L33.4062 23.625ZM41 52.5C41 54.1875 39.5938 55.5 38 55.5C36.3125 55.5 35 54.1875 35 52.5C35 50.9062 36.3125 49.5 38 49.5C39.5938 49.5 41 50.9062 41 52.5ZM40.25 35.25V44.25C40.25 45.5625 39.2188 46.5 38 46.5C36.6875 46.5 35.75 45.5625 35.75 44.25V35.25C35.75 34.0312 36.6875 33 38 33C39.2188 33 40.25 34.0312 40.25 35.25Z" fill="black"/>
</svg>
