<svg width="93" height="93" viewBox="0 0 93 93" fill="none" xmlns="http://www.w3.org/2000/svg">
<rect x="0.5" y="0.742188" width="92" height="92" rx="16" fill="#ECF23D"/>
<path d="M45.75 30.7109L27.1875 61.1797C27 61.4609 27 61.6484 27 61.9297C27 62.6797 27.5625 63.2422 28.3125 63.2422H64.5938C65.3438 63.2422 66 62.6797 66 61.9297C66 61.6484 65.9062 61.4609 65.7188 61.1797L47.1562 30.7109C47.0625 30.4297 46.7812 30.2422 46.5 30.2422C46.125 30.2422 45.9375 30.4297 45.75 30.7109ZM41.9062 28.3672C42.8438 26.7734 44.625 25.7422 46.5 25.7422C48.2812 25.7422 50.0625 26.7734 51 28.3672L69.5625 58.8359C70.125 59.7734 70.5 60.8047 70.5 61.9297C70.5 65.1172 67.875 67.7422 64.5938 67.7422H28.3125C25.125 67.7422 22.5 65.1172 22.5 61.9297C22.5 60.8047 22.7812 59.7734 23.3438 58.8359L41.9062 28.3672ZM49.5 57.2422C49.5 58.9297 48.0938 60.2422 46.5 60.2422C44.8125 60.2422 43.5 58.9297 43.5 57.2422C43.5 55.6484 44.8125 54.2422 46.5 54.2422C48.0938 54.2422 49.5 55.6484 49.5 57.2422ZM48.75 39.9922V48.9922C48.75 50.3047 47.7188 51.2422 46.5 51.2422C45.1875 51.2422 44.25 50.3047 44.25 48.9922V39.9922C44.25 38.7734 45.1875 37.7422 46.5 37.7422C47.7188 37.7422 48.75 38.7734 48.75 39.9922Z" fill="black"/>
</svg>
