<svg width="28" height="28" viewBox="0 0 28 28" fill="none" xmlns="http://www.w3.org/2000/svg">
<g id="calendar_month_FILL0_wght400_GRAD0_opsz48">
<path id="Vector" d="M5.86738 24.9715C5.42853 24.9715 5.04453 24.807 4.71539 24.4778C4.38625 24.1487 4.22168 23.7647 4.22168 23.3258V6.32025C4.22168 5.88139 4.38625 5.49739 4.71539 5.16825C5.04453 4.83911 5.42853 4.67454 5.86738 4.67454H7.65023V3.02884H9.43307V4.67454H18.7587V3.02884H20.5416V4.67454H22.3244C22.7633 4.67454 23.1473 4.83911 23.4764 5.16825C23.8055 5.49739 23.9701 5.88139 23.9701 6.32025V23.3258C23.9701 23.7647 23.8055 24.1487 23.4764 24.4778C23.1473 24.807 22.7633 24.9715 22.3244 24.9715H5.86738ZM5.86738 23.3258H22.3244V11.5316H5.86738V23.3258ZM5.86738 9.88593H22.3244V6.32025H5.86738V9.88593ZM5.86738 9.88593V6.32025V9.88593ZM14.0959 16.1945C13.785 16.1945 13.5245 16.0893 13.3142 15.879C13.1039 15.6688 12.9988 15.4082 12.9988 15.0973C12.9988 14.7865 13.1039 14.5259 13.3142 14.3156C13.5245 14.1053 13.785 14.0002 14.0959 14.0002C14.4068 14.0002 14.6673 14.1053 14.8776 14.3156C15.0879 14.5259 15.193 14.7865 15.193 15.0973C15.193 15.4082 15.0879 15.6688 14.8776 15.879C14.6673 16.0893 14.4068 16.1945 14.0959 16.1945ZM9.70736 16.1945C9.3965 16.1945 9.13593 16.0893 8.92565 15.879C8.71536 15.6688 8.61022 15.4082 8.61022 15.0973C8.61022 14.7865 8.71536 14.5259 8.92565 14.3156C9.13593 14.1053 9.3965 14.0002 9.70736 14.0002C10.0182 14.0002 10.2788 14.1053 10.4891 14.3156C10.6993 14.5259 10.8045 14.7865 10.8045 15.0973C10.8045 15.4082 10.6993 15.6688 10.4891 15.879C10.2788 16.0893 10.0182 16.1945 9.70736 16.1945ZM18.4844 16.1945C18.1736 16.1945 17.913 16.0893 17.7027 15.879C17.4924 15.6688 17.3873 15.4082 17.3873 15.0973C17.3873 14.7865 17.4924 14.5259 17.7027 14.3156C17.913 14.1053 18.1736 14.0002 18.4844 14.0002C18.7953 14.0002 19.0559 14.1053 19.2661 14.3156C19.4764 14.5259 19.5816 14.7865 19.5816 15.0973C19.5816 15.4082 19.4764 15.6688 19.2661 15.879C19.0559 16.0893 18.7953 16.1945 18.4844 16.1945ZM14.0959 20.583C13.785 20.583 13.5245 20.4779 13.3142 20.2676C13.1039 20.0573 12.9988 19.7967 12.9988 19.4859C12.9988 19.175 13.1039 18.9144 13.3142 18.7042C13.5245 18.4939 13.785 18.3887 14.0959 18.3887C14.4068 18.3887 14.6673 18.4939 14.8776 18.7042C15.0879 18.9144 15.193 19.175 15.193 19.4859C15.193 19.7967 15.0879 20.0573 14.8776 20.2676C14.6673 20.4779 14.4068 20.583 14.0959 20.583ZM9.70736 20.583C9.3965 20.583 9.13593 20.4779 8.92565 20.2676C8.71536 20.0573 8.61022 19.7967 8.61022 19.4859C8.61022 19.175 8.71536 18.9144 8.92565 18.7042C9.13593 18.4939 9.3965 18.3887 9.70736 18.3887C10.0182 18.3887 10.2788 18.4939 10.4891 18.7042C10.6993 18.9144 10.8045 19.175 10.8045 19.4859C10.8045 19.7967 10.6993 20.0573 10.4891 20.2676C10.2788 20.4779 10.0182 20.583 9.70736 20.583ZM18.4844 20.583C18.1736 20.583 17.913 20.4779 17.7027 20.2676C17.4924 20.0573 17.3873 19.7967 17.3873 19.4859C17.3873 19.175 17.4924 18.9144 17.7027 18.7042C17.913 18.4939 18.1736 18.3887 18.4844 18.3887C18.7953 18.3887 19.0559 18.4939 19.2661 18.7042C19.4764 18.9144 19.5816 19.175 19.5816 19.4859C19.5816 19.7967 19.4764 20.0573 19.2661 20.2676C19.0559 20.4779 18.7953 20.583 18.4844 20.583Z" fill="#FCFCFC"/>
</g>
</svg>
