<svg width="27" height="28" viewBox="0 0 27 28" fill="none" xmlns="http://www.w3.org/2000/svg">
<g id="location_on_FILL0_wght400_GRAD0_opsz48">
<path id="Vector" d="M13.427 13.7259C13.9573 13.7259 14.4098 13.5385 14.7847 13.1636C15.1595 12.7888 15.347 12.3362 15.347 11.8059C15.347 11.2756 15.1595 10.8231 14.7847 10.4482C14.4098 10.0734 13.9573 9.88593 13.427 9.88593C12.8967 9.88593 12.4441 10.0734 12.0693 10.4482C11.6944 10.8231 11.507 11.2756 11.507 11.8059C11.507 12.3362 11.6944 12.7888 12.0693 13.1636C12.4441 13.5385 12.8967 13.7259 13.427 13.7259ZM13.427 22.8047C15.859 20.5921 17.6555 18.5853 18.8167 16.7842C19.9778 14.983 20.5584 13.3968 20.5584 12.0253C20.5584 9.86765 19.8681 8.10309 18.4875 6.73167C17.107 5.36025 15.4201 4.67454 13.427 4.67454C11.4339 4.67454 9.74701 5.36025 8.36645 6.73167C6.98589 8.10309 6.29561 9.86765 6.29561 12.0253C6.29561 13.3968 6.88989 14.983 8.07845 16.7842C9.26701 18.5853 11.0499 20.5921 13.427 22.8047ZM13.427 24.9715C10.483 22.4664 8.28416 20.1396 6.83046 17.991C5.37675 15.8425 4.6499 13.8539 4.6499 12.0253C4.6499 9.28251 5.53218 7.09738 7.29674 5.46996C9.0613 3.84255 11.1047 3.02884 13.427 3.02884C15.7493 3.02884 17.7927 3.84255 19.5572 5.46996C21.3218 7.09738 22.2041 9.28251 22.2041 12.0253C22.2041 13.8539 21.4772 15.8425 20.0235 17.991C18.5698 20.1396 16.371 22.4664 13.427 24.9715Z" fill="#FCFCFC"/>
</g>
</svg>
