<svg width="106" height="29" viewBox="0 0 106 29" fill="none" xmlns="http://www.w3.org/2000/svg">
<g id="Group">
<path id="Vector" d="M0.478645 7.57432H6.65756C6.92244 7.57432 7.13639 7.7833 7.13639 8.04203V10.4353C7.13639 10.9279 7.81388 11.0822 8.0431 10.6443C9.11792 8.56448 10.9517 7.17627 13.6973 7.17627C14.0794 7.17627 14.4818 7.20115 14.9097 7.28573C15.1389 7.33051 15.307 7.51959 15.307 7.74847V13.4655C15.307 13.7541 15.0472 13.968 14.7569 13.9282C14.4309 13.8834 14.115 13.8685 13.7432 13.8685C9.45412 13.8685 7.14148 16.6101 7.14148 20.3966V28.069C7.14148 28.3278 6.92754 28.5367 6.66265 28.5367H0.478645C0.213761 28.5367 -0.000183105 28.3278 -0.000183105 28.069V8.04203C-0.000183105 7.7833 0.213761 7.57432 0.478645 7.57432Z" fill="#FCFCFC"/>
<g id="Group_2">
<g id="Group_3">
<path id="Vector_2" d="M15.663 18.1616C15.663 11.0713 21.1084 7.24008 26.676 7.24008C32.2436 7.24008 38.499 10.8076 37.251 20.4057C37.2204 20.6395 37.0115 20.8186 36.7721 20.8186H23.5127C23.1052 20.8186 22.8861 21.2814 23.1459 21.5899C24.1341 22.7691 25.7693 23.3562 27.8323 23.3562C29.442 23.3562 30.909 23.0776 32.3659 22.2019C32.5646 22.0825 32.8142 22.1073 32.9721 22.2715L35.5445 24.9484C35.7126 25.1226 35.7228 25.3913 35.5649 25.5704C33.7973 27.5457 30.8887 28.9986 27.0529 28.9986C21.0319 28.9986 15.6681 25.0479 15.6681 18.1616H15.663ZM30.2519 15.9077C30.6085 15.9077 30.8326 15.5444 30.6849 15.231C29.9769 13.7283 28.3519 13.0467 26.7575 13.0467C25.1631 13.0467 23.5738 13.7283 22.7078 15.226C22.5296 15.5295 22.7741 15.9077 23.1357 15.9077H30.257H30.2519Z" fill="#FCFCFC"/>
<path id="Vector_3" d="M41.6082 21.5862V13.5953C41.6082 13.3365 41.3942 13.1276 41.1294 13.1276H38.8269C38.562 13.1276 38.3481 12.9186 38.3481 12.6599V8.11708C38.3481 7.85835 38.562 7.64937 38.8269 7.64937H41.1294C41.3942 7.64937 41.6082 7.44039 41.6082 7.18166V2.75333C41.6082 2.49459 41.8221 2.28561 42.087 2.28561H48.2659C48.5308 2.28561 48.7448 2.49459 48.7448 2.75333V7.17668C48.7448 7.43541 48.9587 7.64439 49.2236 7.64439H52.8046C53.0695 7.64439 53.2834 7.85337 53.2834 8.1121V12.6549C53.2834 12.9136 53.0695 13.1226 52.8046 13.1226H49.2236C48.9587 13.1226 48.7448 13.3316 48.7448 13.5903V20.5363C48.7448 21.5016 49.3204 22.7107 51.3426 22.7107C51.7043 22.7107 52.229 22.6659 52.774 22.5465C53.0746 22.4818 53.3649 22.6957 53.3649 22.9993V27.4674C53.3649 27.5968 53.3191 27.7212 53.2223 27.8057C52.3309 28.5819 50.5174 28.8357 48.9944 28.8357C44.7053 28.8357 41.6082 26.8206 41.6082 21.5812V21.5862Z" fill="#FCFCFC"/>
<path id="Vector_4" d="M83.088 18.1235C83.088 10.9934 88.9053 7.24673 94.5544 7.24673C100.204 7.24673 105.98 10.9934 105.98 18.1235C105.98 25.2536 100.163 29.0003 94.5544 29.0003C88.946 29.0003 83.088 25.2536 83.088 18.1235ZM94.5544 22.7558C96.9893 22.7558 98.9657 20.9049 98.9657 18.1235C98.9657 15.3421 96.9842 13.4912 94.5544 13.4912C92.1246 13.4912 90.0972 15.3471 90.0972 18.1235C90.0972 20.8999 92.0788 22.7558 94.5544 22.7558Z" fill="#FCFCFC"/>
</g>
<path id="Vector_5" d="M82.3628 10.7744V16.4964C82.3628 16.78 82.0979 16.9939 81.8076 16.9541C81.4867 16.9093 81.1657 16.8944 80.7939 16.8944C76.5048 16.8944 74.1922 19.636 74.1922 23.4225V28.1095C74.1922 28.3683 73.9782 28.5772 73.7133 28.5772H67.5344C67.2695 28.5772 67.0556 28.3683 67.0556 28.1095V13.1776L66.6379 13.2274C66.6379 13.2274 66.2304 13.1577 65.9706 13.2274C65.7057 13.297 64.9162 13.6453 64.7532 13.6453H63.2199V28.219C63.2199 28.428 63.0059 28.5971 62.7411 28.5971H56.5621C56.3024 28.5971 56.0833 28.428 56.0833 28.219V12.1128C56.0833 12.1128 56.0833 12.073 56.0884 12.0581C56.0731 10.8639 56.0731 8.83385 56.2514 8.36116C56.5112 7.6795 57.4077 5.83851 58.9716 5.0623C58.9716 5.0623 59.4504 4.82845 59.4606 4.77869C59.4708 4.72894 59.5166 4.54484 59.6389 4.41049C59.7611 4.27118 59.8987 3.98259 59.9394 3.98259C59.9802 3.98259 60.4488 4.28113 60.4488 4.28113C60.4488 4.28113 60.5456 3.99254 60.6169 3.98259C60.6882 3.97264 60.8156 3.98259 60.8156 3.98259V3.92288C60.8156 3.92288 61.0957 3.42532 61.0754 2.69887C61.055 1.96745 61.0244 1.35544 61.2638 1.06188C61.5032 0.768317 61.5847 0.624023 61.5847 0.624023L61.6408 0.52451C61.6408 0.52451 61.5847 0.52451 61.6713 0.459826L61.763 0.390167C61.763 0.390167 61.7885 0.380216 61.814 0.380216L61.9209 0.370265L62.0483 0.300605L62.1298 0.275727C62.1298 0.275727 62.7869 -0.0277876 63.2963 0.0020663C63.8057 0.0319202 64.4119 0.305581 64.6105 0.569291C64.6105 0.569291 64.7735 0.619047 64.9671 0.609096C65.1658 0.609096 65.665 1.24598 65.7159 1.45993C65.7668 1.67389 65.8942 1.82813 65.7974 2.00228C65.7006 2.1814 65.3797 2.24609 65.3797 2.24609L65.3339 2.22121C65.3339 2.22121 65.3695 2.83321 65.3135 3.38053C65.3135 3.38053 65.2473 3.53478 65.125 3.58454C65.0028 3.63429 65.1709 4.6145 65.1861 4.66923C65.2014 4.72396 65.1199 4.89313 64.9314 4.87821C64.7379 4.86328 64.58 4.79362 64.58 4.79362C64.58 4.79362 64.5647 5.0225 64.5392 5.07226C64.5137 5.11704 64.3355 5.14192 64.3355 5.14192C64.3355 5.14192 64.2692 5.45538 64.2438 5.66933C64.2183 5.88329 64.0298 6.04251 63.8617 6.04251C63.6936 6.04251 63.4899 6.05744 63.2861 5.84846C63.0874 5.63948 62.8226 5.97783 62.8226 5.97783L62.4813 6.1868V6.42563C62.4813 6.42563 62.5882 6.79383 62.6596 7.25159C62.7258 7.70935 62.7003 8.78907 62.7003 8.78907C62.7003 8.78907 63.118 9.76927 63.1944 10.1872C63.2759 10.6102 63.1842 10.839 63.1842 10.839C63.1842 10.839 64.0043 10.9385 64.0604 10.8987C64.1215 10.8589 64.2998 10.6748 64.5086 10.7246C64.7226 10.7744 65.2065 10.5504 65.3899 10.5504C65.5733 10.5504 66.9996 10.5504 67.2084 10.4708C67.4224 10.3962 67.9572 10.2768 68.1151 10.2967C68.2781 10.3166 68.8538 10.0529 69.0066 10.0628C69.1543 10.0728 69.4243 10.5206 69.5109 10.5604C69.6026 10.6002 69.8012 10.4708 69.9388 10.8241C70.0814 11.1724 70.28 11.456 70.28 11.456L71.4822 11.466L72.6946 8.01287C72.7302 7.90838 72.8474 7.84867 72.9544 7.87852L73.7286 8.08253C73.856 8.11736 73.9324 8.2517 73.8865 8.37111L73.7286 8.85873L73.5198 9.48068L72.5978 12.6004H73.7133C73.9782 12.6004 74.1922 12.8094 74.1922 13.0681V13.4662C74.1922 13.9637 74.8697 14.118 75.0989 13.6752C76.1686 11.5953 78.0075 10.2071 80.7531 10.2071C81.1301 10.2071 81.5376 10.227 81.9655 10.3116C82.1947 10.3564 82.3628 10.5504 82.3628 10.7744Z" fill="#FCFCFC"/>
</g>
</g>
</svg>
