<svg width="85" height="17" viewBox="0 0 85 17" fill="none" xmlns="http://www.w3.org/2000/svg">
<g id="logo-ready-to-go 2" clip-path="url(#clip0_6729_492)">
<g id="Camada_1-2">
<g id="Camada_2-2">
<g id="Camada_1-3">
<path id="Caminho_19854" d="M45.2654 4.38517L41.0725 14.2203C40.1771 16.3301 38.7374 16.8276 37.4105 16.8276C36.8892 16.8373 36.3737 16.7389 35.8926 16.5403C35.6081 16.4053 35.3045 16.1951 35.4363 15.7149L35.7589 14.5463C35.8716 14.1625 36.0625 13.9909 36.6124 14.1625C36.8129 14.2338 37.0267 14.2666 37.2386 14.2589C37.7007 14.2994 38.1341 14.0256 38.3002 13.5878L38.8673 12.3574L35.2052 4.38324C34.9589 3.8452 35.3198 3.5 35.8697 3.5H37.5594C38.1093 3.5 38.4129 3.82591 38.6038 4.38324L40.4444 9.25069L42.2238 4.38324C42.4148 3.82784 42.7184 3.5 43.2873 3.5H44.5971C45.1508 3.5 45.4907 3.8452 45.2635 4.38324L45.2654 4.38517Z" fill="white"/>
<path id="Caminho_19855" d="M53.2081 8.28459C53.2081 7.83526 53.2654 7.38785 53.3838 6.95395C53.6053 6.12857 54.0368 5.37839 54.6344 4.77478C54.9284 4.4778 55.2606 4.22131 55.6215 4.01111C55.99 3.79705 56.3833 3.6312 56.7938 3.51935C57.2215 3.40364 57.6645 3.34386 58.1093 3.34579C59.4019 3.33808 60.6449 3.85105 61.5613 4.77093C62.0043 5.22026 62.3594 5.75059 62.6057 6.33491C62.8654 6.95009 62.9952 7.61156 62.9895 8.27881C62.9895 8.72621 62.9322 9.17361 62.8139 9.60559C62.7012 10.0202 62.5351 10.4194 62.3213 10.7916C61.4525 12.3074 59.8449 13.235 58.1112 13.2273C57.6683 13.2273 57.2253 13.1713 56.7957 13.0556C55.5661 12.722 54.5179 11.9101 53.8764 10.7993C53.6625 10.4271 53.4983 10.0299 53.3838 9.6133C53.2654 9.1794 53.2043 8.73199 53.2062 8.28266L53.2081 8.28459ZM55.927 8.28459C55.9232 8.60086 55.9747 8.9152 56.0759 9.21411C56.1714 9.48988 56.3165 9.74444 56.5074 9.96236C56.6964 10.1745 56.9275 10.3442 57.1852 10.4618C57.4678 10.5872 57.7733 10.6508 58.0807 10.647C58.3824 10.6508 58.6802 10.5891 58.9551 10.4618C59.2091 10.3442 59.4344 10.1745 59.6177 9.96236C59.8029 9.74251 59.9461 9.48795 60.0339 9.21411C60.2287 8.61436 60.2287 7.96639 60.0339 7.36664C59.9423 7.08701 59.801 6.82667 59.6177 6.59911C59.2396 6.13628 58.6745 5.87401 58.0807 5.88558C57.7714 5.88172 57.4659 5.94729 57.1852 6.0765C56.9256 6.19992 56.6945 6.37927 56.5074 6.59911C56.3184 6.82474 56.1733 7.08508 56.0778 7.36471C55.9747 7.65977 55.9232 7.97218 55.9251 8.28459H55.927Z" fill="white"/>
<path id="Caminho_19856" d="M75.2205 8.27487C75.2205 7.82554 75.2777 7.37814 75.3961 6.94423C75.6176 6.12078 76.0491 5.3706 76.6467 4.76699C76.9407 4.47001 77.273 4.21352 77.6338 4.00332C78.0023 3.78926 78.3956 3.62534 78.8061 3.51349C79.2338 3.39585 79.6768 3.338 80.1217 3.33993C81.4143 3.33222 82.6572 3.84519 83.5737 4.76507C84.0186 5.2144 84.3718 5.74473 84.6181 6.32905C84.8777 6.94423 85.0076 7.6057 85.0018 8.27295C85.0018 8.72035 84.9446 9.16775 84.8281 9.59973C84.7155 10.0144 84.5493 10.4116 84.3374 10.7838C83.4668 12.2957 81.861 13.2214 80.1293 13.2137C79.6863 13.2137 79.2434 13.1578 78.8138 13.042C77.5842 12.7084 76.5341 11.8985 75.8944 10.7857C75.4553 10.024 75.2262 9.15618 75.2281 8.27487H75.2224H75.2205ZM77.9374 8.27487C77.9336 8.59114 77.9851 8.90548 78.0863 9.20247C78.1799 9.47824 78.3269 9.73279 78.5178 9.95071C78.7069 10.1628 78.9379 10.3345 79.1956 10.4521C79.4782 10.5775 79.7837 10.6411 80.0911 10.6372C80.3928 10.6411 80.6906 10.5794 80.9656 10.4521C81.2195 10.3345 81.4448 10.1648 81.6281 9.95071C81.8152 9.73087 81.9565 9.47631 82.0443 9.20247C82.2391 8.60271 82.2391 7.95668 82.0443 7.35692C81.9527 7.0773 81.8114 6.81695 81.6281 6.58939C81.2501 6.12656 80.6849 5.86429 80.0911 5.87586C79.7818 5.87201 79.4763 5.93757 79.1956 6.06678C78.936 6.1902 78.7049 6.36955 78.5178 6.58939C78.3288 6.81503 78.1818 7.07537 78.0863 7.35692C77.9851 7.65198 77.9355 7.96246 77.9374 8.27487Z" fill="white"/>
<path id="Caminho_19857" d="M26.5102 3.77782C26.4759 3.70261 26.4262 3.63897 26.3613 3.58883C26.3078 3.53483 26.241 3.49819 26.1666 3.48469C26.1036 3.47119 26.0386 3.46348 25.9718 3.46155H24.8625C24.7861 3.45962 24.7078 3.46541 24.6315 3.48084C24.5799 3.49241 24.5303 3.51748 24.494 3.55605C24.4482 3.60619 24.4138 3.66404 24.389 3.72961C24.3565 3.80482 24.3145 3.90895 24.2668 4.03045L24.2114 4.20208C23.9346 4.01116 23.6386 3.84917 23.3293 3.71804C22.726 3.46348 22.0806 3.3362 21.4277 3.34199C21.0114 3.34199 20.5971 3.3902 20.1923 3.49241L20.1179 3.51169C19.9384 3.5599 19.7627 3.61776 19.5909 3.68718H19.5833L19.4973 3.72382C19.3083 3.80289 19.1231 3.89546 18.9456 3.99766C18.5847 4.20594 18.2525 4.46242 17.9584 4.75941C17.3608 5.36302 16.9293 6.11319 16.7078 6.93665C16.4749 7.80638 16.4749 8.72433 16.7078 9.596C16.7308 9.67893 16.7556 9.75992 16.7823 9.84092C16.7899 9.86599 16.7995 9.89299 16.8071 9.91613C17.3284 11.4473 18.5694 12.6179 20.1198 13.0364C20.5475 13.154 20.9904 13.2119 21.4334 13.2099C21.5174 13.2099 21.6014 13.2099 21.6854 13.2042C22.0386 13.1868 22.388 13.1309 22.7298 13.0364C23.1384 12.9245 23.5298 12.7587 23.8964 12.5446L23.9308 12.5234C23.9537 12.5871 23.9747 12.6468 23.9957 12.7047C24.0186 12.7703 24.053 12.8339 24.0969 12.8879C24.1389 12.94 24.1923 12.9805 24.2534 13.0055C24.3336 13.0364 24.4215 13.0499 24.5074 13.046H25.9756C26.0405 13.046 26.1055 13.0364 26.1704 13.0229C26.3174 12.9766 26.4415 12.8725 26.5141 12.7336C26.5446 12.6545 26.558 12.5716 26.558 12.4887V4.01888C26.558 3.93595 26.5427 3.85496 26.5102 3.77782ZM19.4019 7.35705C19.4973 7.07742 19.6444 6.81708 19.8334 6.58952C20.0205 6.36775 20.2534 6.19033 20.515 6.06691C20.5475 6.05148 20.5818 6.03605 20.6162 6.02255L20.6563 6.00713C20.8873 5.9242 21.1317 5.88178 21.3761 5.8837C21.695 5.88178 22.0119 5.94734 22.304 6.07655L22.3174 6.08234C22.5618 6.20576 22.7775 6.37739 22.9513 6.58952C23.1365 6.81708 23.2778 7.07742 23.3675 7.35705C23.5623 7.9568 23.5623 8.60284 23.3675 9.20259C23.2778 9.47644 23.1365 9.73099 22.9513 9.95084C22.768 10.1649 22.5408 10.3346 22.2849 10.4522C22.01 10.5776 21.7121 10.6412 21.4124 10.6354C21.105 10.6393 20.7995 10.5776 20.5188 10.4522C20.2611 10.3346 20.03 10.1649 19.841 9.95084C19.6501 9.73292 19.5031 9.47836 19.4095 9.20259C19.2052 8.60477 19.2052 7.95488 19.4095 7.35705H19.4057H19.4019Z" fill="white"/>
<path id="Caminho_19858" d="M75.8296 3.76994C75.7971 3.70244 75.7494 3.64266 75.6921 3.59638C75.6348 3.5501 75.5718 3.51538 75.5031 3.49031C75.4363 3.46524 75.3656 3.45174 75.295 3.45174H74.1857C74.1036 3.44982 74.0215 3.46331 73.9432 3.49031C73.8859 3.51346 73.8344 3.5501 73.7943 3.59831C73.7523 3.65038 73.7179 3.71016 73.6969 3.77573L73.6148 4.00907L73.5938 4.07657C73.3742 3.93965 73.1451 3.82008 72.9084 3.7198C72.3566 3.48453 71.7666 3.35725 71.1671 3.34375H71.0048C70.5618 3.34375 70.1189 3.39968 69.6912 3.51731C69.2807 3.62916 68.8873 3.79308 68.5189 4.00714C68.158 4.21542 67.8258 4.4719 67.5317 4.76889C67.2377 5.06587 66.9819 5.39949 66.7718 5.76205C66.621 6.02432 66.4931 6.30009 66.3938 6.5855C66.3518 6.70314 66.3155 6.82463 66.2811 6.94805C65.9279 8.24398 66.1055 9.62862 66.7718 10.7915C67.4115 11.9042 68.4616 12.7161 69.6912 13.0478C70.1189 13.1654 70.5618 13.2233 71.0048 13.2214C71.4439 13.2214 71.8811 13.1654 72.305 13.0478C72.5647 12.9764 72.8186 12.8819 73.063 12.7682C73 12.9687 72.8912 13.1519 72.7461 13.3024C72.5838 13.474 72.3947 13.6205 72.1885 13.7343C71.9747 13.8539 71.7437 13.9426 71.5069 14.0005C71.2778 14.0583 71.043 14.0892 70.8081 14.0911C70.6745 14.0911 70.5236 14.0834 70.3613 14.0718C70.1914 14.0583 70.0215 14.0313 69.8554 13.9889C69.6835 13.9465 69.5174 13.8886 69.357 13.8172C69.1986 13.7459 69.0535 13.6495 68.9294 13.528C68.8129 13.4277 68.6716 13.366 68.5189 13.3486C68.4501 13.3486 68.3833 13.3679 68.3241 13.4046C68.2535 13.4528 68.1885 13.5087 68.1313 13.5743L67.4229 14.5597C67.337 14.6754 67.2874 14.8143 67.2816 14.9589C67.2797 15.0553 67.3064 15.1517 67.3561 15.2327C67.4057 15.3137 67.4706 15.3832 67.5451 15.4391C67.7742 15.6416 68.0263 15.8151 68.2993 15.954C68.5838 16.1025 68.8797 16.224 69.1852 16.3185C69.4869 16.413 69.7943 16.4843 70.1055 16.5325C70.3919 16.5788 70.6802 16.6058 70.9704 16.6077C71.6291 16.6135 72.284 16.5017 72.9064 16.278C74.094 15.8576 75.0411 14.9377 75.505 13.7575C75.7685 13.0921 75.8964 12.3825 75.885 11.667V4.01293C75.885 3.93 75.8697 3.84708 75.8334 3.77187L75.8296 3.76994ZM71.8544 10.454C71.5795 10.5794 71.2816 10.643 70.98 10.6391C70.6726 10.643 70.3671 10.5813 70.0845 10.454C69.8267 10.3364 69.5957 10.1667 69.4067 9.9526C69.2157 9.73469 69.0687 9.48013 68.9752 9.20436C68.9255 9.07129 68.8874 8.93437 68.8625 8.79552L68.8568 8.75695C68.832 8.59689 68.8186 8.43683 68.8186 8.27484C68.8167 7.96243 68.8663 7.65194 68.9675 7.35689C69.063 7.07726 69.21 6.81692 69.399 6.58936C69.5862 6.36759 69.8172 6.19017 70.0768 6.06674C70.3575 5.93561 70.663 5.87004 70.9723 5.87583C71.568 5.86233 72.1389 6.1246 72.5189 6.58936C72.7041 6.81692 72.8453 7.07726 72.9351 7.35689C73.1298 7.95664 73.1298 8.60268 72.9351 9.20243C72.8473 9.47627 72.7041 9.73083 72.5189 9.95068C72.368 10.1262 72.1885 10.2727 71.9862 10.3846C71.9422 10.4097 71.9002 10.4309 71.8544 10.454Z" fill="white"/>
<path id="Caminho_19859" d="M9.58615 4.37751L9.23102 5.79686C9.0821 6.32526 8.76324 6.44097 8.4253 6.3079C8.1179 6.19798 7.79713 6.13434 7.47064 6.11891C6.36515 6.11891 5.76563 6.85751 5.76563 7.9741V12.1936C5.76563 12.7432 5.46778 13.0633 4.90453 13.0633H3.36754C2.93412 13.1057 2.54844 12.7856 2.50644 12.3479C2.50071 12.2958 2.50071 12.2437 2.50644 12.1917V6.49496C2.50644 6.32526 2.43198 6.23076 2.31933 6.23076C2.13222 6.23076 1.90692 6.38118 1.70071 6.40047C1.55179 6.41975 1.3284 6.34261 1.21384 5.87207L0.950353 4.62049C0.818611 4.12873 0.912167 3.88189 1.32267 3.67362C1.76372 3.46534 2.24295 3.35542 2.72983 3.35156C3.70358 3.35156 4.64105 3.72761 5.05346 4.73234C5.64916 3.86261 6.53317 3.35156 7.76849 3.35156C8.22673 3.35156 8.68114 3.42099 9.11647 3.55984C9.43532 3.67362 9.73508 3.82597 9.58615 4.37365V4.37751Z" fill="white"/>
<path id="Caminho_19860" d="M17.0611 6.69361C16.9503 6.31756 16.7919 5.95887 16.5876 5.62525C16.3814 5.28969 16.137 4.97921 15.8582 4.70344C15.5775 4.42381 15.2625 4.18082 14.9207 3.98219C14.579 3.7797 14.2124 3.6235 13.8305 3.5155C13.441 3.40558 13.0362 3.34965 12.6315 3.34965C12.1961 3.34773 11.7627 3.40751 11.3446 3.53093C10.9799 3.63892 10.6286 3.78934 10.3002 3.98219C10.3174 4.17504 10.2983 4.36981 10.2448 4.55687L9.8897 5.96851L9.88398 5.9878C9.81333 6.27128 9.66632 6.5297 9.46011 6.73411C9.24436 6.94046 8.95987 7.05424 8.66393 7.05231C8.50164 7.05231 8.34126 7.02145 8.18851 6.96167L8.10641 6.9366L8.09686 6.97324C7.98994 7.39172 7.93648 7.82177 7.93648 8.25374C7.93075 8.92871 8.06822 9.59981 8.33935 10.2169C8.59901 10.8051 8.96751 11.3374 9.42574 11.7848C10.3747 12.7008 11.6367 13.208 12.9484 13.2022C13.5441 13.206 14.1341 13.0884 14.684 12.8609C15.2281 12.6352 15.7265 12.3132 16.158 11.9101C16.2324 11.8561 16.2973 11.7906 16.3527 11.7173C16.4081 11.6421 16.4367 11.5514 16.4348 11.4589C16.4348 11.4049 16.4272 11.3489 16.4138 11.2969C16.3909 11.2313 16.3565 11.1715 16.3088 11.1214L15.5203 10.2169C15.4515 10.1436 15.3771 10.0781 15.2969 10.0202C15.1861 9.9373 15.0353 9.93151 14.9169 10.0029C14.8444 10.0453 14.7775 10.0954 14.7126 10.1494C14.6076 10.2516 14.4873 10.3403 14.3594 10.4098C14.2067 10.4966 14.0463 10.5679 13.8802 10.6277C13.7007 10.6913 13.5193 10.7415 13.3322 10.7781C13.1508 10.8147 12.9656 10.834 12.7823 10.834C12.5685 10.834 12.3565 10.8051 12.1484 10.7511C11.9231 10.6952 11.7112 10.6026 11.5164 10.4753C11.3102 10.3403 11.1327 10.1649 10.9933 9.96044C10.8329 9.71938 10.7317 9.44361 10.6954 9.15627H16.0568C16.2954 9.16205 16.5341 9.1447 16.7689 9.10034C16.9045 9.0772 17.0286 9.00585 17.1145 8.89592C17.1909 8.77829 17.231 8.64137 17.2291 8.50059C17.2367 8.33667 17.2405 8.12261 17.2405 7.86227C17.2386 7.465 17.1794 7.07159 17.0649 6.69361H17.0611ZM10.7718 7.02145C10.8558 6.84211 10.9589 6.67433 11.0811 6.51812C11.2071 6.3542 11.3503 6.20571 11.5088 6.07458C11.6635 5.9473 11.8353 5.84123 12.0186 5.76217C12.1961 5.68503 12.3871 5.64646 12.5799 5.64646C12.8186 5.6426 13.0572 5.67731 13.2845 5.7506C13.4792 5.81616 13.6587 5.91644 13.821 6.04372C13.9775 6.16907 14.1188 6.31564 14.2372 6.47956C14.3632 6.65119 14.4759 6.83246 14.5751 7.02145H10.7699H10.7718Z" fill="white"/>
<path id="Caminho_19861" d="M35.6539 0.99705C35.6196 0.927625 35.5718 0.865914 35.5126 0.815774C35.4516 0.765634 35.3847 0.725136 35.3103 0.698138C35.2453 0.671139 35.1766 0.65764 35.106 0.655711H33.4296C33.2673 0.644141 33.1088 0.703923 32.9943 0.82156C32.8969 0.933411 32.8453 1.07805 32.8492 1.22847V3.81261C32.7842 3.78176 32.7174 3.7509 32.6506 3.72197C32.0473 3.46742 31.4 3.34014 30.747 3.34592C30.642 3.34592 30.5351 3.34592 30.432 3.35556C29.6683 3.40185 28.9255 3.62555 28.2611 4.00931C27.9002 4.21952 27.568 4.47407 27.274 4.77106C26.9799 5.06804 26.726 5.40167 26.5141 5.76422C26.4396 5.89535 26.369 6.02842 26.306 6.16727C25.8134 7.24335 25.7122 8.46214 26.0234 9.60765C26.073 9.79086 26.1341 9.9702 26.2048 10.1476C26.7661 11.5766 27.9632 12.6546 29.4353 13.0519C29.863 13.1695 30.306 13.2274 30.7489 13.2255C31.5814 13.2255 32.4005 13.0133 33.126 12.6045C33.1451 12.6488 33.1642 12.6893 33.1795 12.7298C33.2043 12.7935 33.2387 12.8552 33.2788 12.9092C33.315 12.9574 33.3628 12.994 33.4162 13.0191C33.4888 13.048 33.569 13.0615 33.6473 13.0577H35.1079C35.5088 13.0577 35.7112 12.8648 35.7112 12.4791V1.22847C35.7112 1.14747 35.6921 1.0684 35.6558 0.99705H35.6539ZM28.6487 8.97126C28.641 8.94426 28.6353 8.91726 28.6296 8.88833C28.5876 8.6897 28.5666 8.48721 28.5685 8.28472C28.5685 7.97038 28.62 7.65797 28.7251 7.36099C28.8205 7.07943 28.9694 6.81909 29.1604 6.59346C29.3494 6.37361 29.5804 6.19427 29.842 6.07084C30.1189 5.93971 30.4205 5.87414 30.7241 5.878C30.9437 5.878 31.1632 5.90693 31.3752 5.96864C31.4535 5.99371 31.5298 6.02456 31.6024 6.0612C31.8582 6.18462 32.0854 6.36397 32.2649 6.58382C32.4482 6.8133 32.5895 7.07365 32.6792 7.35327C32.874 7.95303 32.874 8.59906 32.6792 9.19882C32.5914 9.47266 32.4482 9.72722 32.263 9.94706C32.0797 10.1592 31.8544 10.3308 31.6005 10.4485C31.3255 10.5738 31.0277 10.6375 30.726 10.6336C30.4186 10.6375 30.1131 10.5757 29.8305 10.4485C29.5728 10.3308 29.3418 10.1611 29.1527 9.94706C28.9618 9.72915 28.8148 9.47459 28.7212 9.19882C28.7136 9.18146 28.7079 9.16218 28.7021 9.14482C28.6831 9.08697 28.6659 9.02911 28.6506 8.9674L28.6487 8.97126Z" fill="white"/>
<path id="Caminho_19862" d="M49.8706 2.01481C49.8611 1.87982 49.9165 1.75061 50.0196 1.66576C50.1532 1.57126 50.3002 1.49605 50.4549 1.44205L52.1484 0.846159C52.1733 0.840373 52.1981 0.838445 52.2229 0.838445H52.2859C52.4291 0.81916 52.5704 0.880871 52.6544 1.00044C52.7212 1.13157 52.7518 1.27813 52.7441 1.4247L52.7365 3.49394H53.7561C53.8993 3.48816 54.0387 3.5383 54.1437 3.63665C54.2506 3.75236 54.304 3.90856 54.2926 4.06477V5.5169C54.3079 5.68468 54.2525 5.85246 54.1437 5.97974C54.0387 6.08002 53.8993 6.13208 53.7561 6.1263H52.7346L52.7422 12.4748C52.7537 12.6368 52.6926 12.7949 52.578 12.9068C52.4501 13.0129 52.2878 13.0668 52.1236 13.0572H50.4415C50.0577 13.0572 49.8668 12.8644 49.8687 12.4787L49.8611 6.13016H49.0935C48.7117 6.13016 48.5208 5.92767 48.5208 5.52076V4.06477C48.5208 3.68293 48.7117 3.49201 49.0935 3.49201H49.8611L49.8668 2.01288L49.8706 2.01481Z" fill="white"/>
</g>
</g>
</g>
</g>
<defs>
<clipPath id="clip0_6729_492">
<rect width="84.105" height="16.174" fill="white" transform="translate(0.89502 0.655273)"/>
</clipPath>
</defs>
</svg>
