<svg width="16" height="17" viewBox="0 0 16 17" fill="none" xmlns="http://www.w3.org/2000/svg">
<g id="x">
<path id="Icon" fill-rule="evenodd" clip-rule="evenodd" d="M3.29289 4.03508C3.68342 3.64456 4.31658 3.64456 4.70711 4.03508L8 7.32797L11.2929 4.03508C11.6834 3.64456 12.3166 3.64456 12.7071 4.03508C13.0976 4.4256 13.0976 5.05877 12.7071 5.44929L9.41421 8.74219L12.7071 12.0351C13.0976 12.4256 13.0976 13.0588 12.7071 13.4493C12.3166 13.8398 11.6834 13.8398 11.2929 13.4493L8 10.1564L4.70711 13.4493C4.31658 13.8398 3.68342 13.8398 3.29289 13.4493C2.90237 13.0588 2.90237 12.4256 3.29289 12.0351L6.58579 8.74219L3.29289 5.44929C2.90237 5.05877 2.90237 4.4256 3.29289 4.03508Z" fill="#75979B"/>
</g>
</svg>
