<svg width="24" height="24" viewBox="0 0 24 24" fill="none" xmlns="http://www.w3.org/2000/svg">
<g id="arrow-narrow-right">
<path id="Icon" fill-rule="evenodd" clip-rule="evenodd" d="M15.2929 7.29314C15.6834 6.90261 16.3166 6.90261 16.7071 7.29314L20.7071 11.2931C20.8946 11.4807 21 11.735 21 12.0003C21 12.2655 20.8946 12.5198 20.7071 12.7074L16.7071 16.7074C16.3166 17.0979 15.6834 17.0979 15.2929 16.7073C14.9024 16.3168 14.9024 15.6837 15.2929 15.2931L17.5858 13.0003L4 13.0002C3.44771 13.0002 3 12.5525 3 12.0002C3 11.448 3.44772 11.0002 4 11.0002L17.5858 11.0003L15.2929 8.70735C14.9024 8.31683 14.9024 7.68366 15.2929 7.29314Z" fill="#151E21"/>
</g>
</svg>
