<svg width="56" height="129" viewBox="0 0 56 129" fill="none" xmlns="http://www.w3.org/2000/svg">
<rect y="0.662109" width="56" height="128" rx="16" fill="#ECF23D"/>
<path d="M36.6719 76.8887L15.7344 55.9512C14.0156 58.4512 13 61.4199 13 64.623C13 72.9043 19.7188 79.623 28 79.623C31.2031 79.623 34.1719 78.6074 36.6719 76.8887ZM40.1875 73.373C41.9062 70.873 43 67.9043 43 64.623C43 56.3418 36.2812 49.623 28 49.623C24.7188 49.623 21.75 50.7168 19.25 52.4355L40.1875 73.373ZM8 64.623C8 57.5137 11.75 50.9512 18 47.3574C24.1719 43.7637 31.75 43.7637 38 47.3574C44.1719 50.9512 48 57.5137 48 64.623C48 71.8105 44.1719 78.373 38 81.9668C31.75 85.5605 24.1719 85.5605 18 81.9668C11.75 78.373 8 71.8105 8 64.623Z" fill="black"/>
</svg>
