<svg width="81" height="81" viewBox="0 0 81 81" fill="none" xmlns="http://www.w3.org/2000/svg">
<rect x="0.5" y="0.742188" width="80" height="80" rx="16" fill="#ECF23D"/>
<path d="M50.9062 55.4141L25.7812 30.2891C23.7188 33.2891 22.5 36.8516 22.5 40.6953C22.5 50.6328 30.5625 58.6953 40.5 58.6953C44.3438 58.6953 47.9062 57.4766 50.9062 55.4141ZM55.125 51.1953C57.1875 48.1953 58.5 44.6328 58.5 40.6953C58.5 30.7578 50.4375 22.6953 40.5 22.6953C36.5625 22.6953 33 24.0078 30 26.0703L55.125 51.1953ZM16.5 40.6953C16.5 32.1641 21 24.2891 28.5 19.9766C35.9062 15.6641 45 15.6641 52.5 19.9766C59.9062 24.2891 64.5 32.1641 64.5 40.6953C64.5 49.3203 59.9062 57.1953 52.5 61.5078C45 65.8203 35.9062 65.8203 28.5 61.5078C21 57.1953 16.5 49.3203 16.5 40.6953Z" fill="black"/>
</svg>
