<svg width="17" height="16" viewBox="0 0 17 16" fill="none" xmlns="http://www.w3.org/2000/svg">
<g id="exclamation-triangle">
<path id="Icon" fill-rule="evenodd" clip-rule="evenodd" d="M5.86212 3.1444C6.99438 1.03601 10.0184 1.0371 11.1491 3.1463L15.1359 10.5829C16.2073 12.5814 14.7594 15.0003 12.4918 15.0003H4.5115C2.24294 15.0003 0.795206 12.5795 1.8685 10.581L5.86212 3.1444ZM9.38646 4.09127C9.00955 3.3882 8.00154 3.38784 7.62412 4.09063L3.6305 11.5272C3.27273 12.1934 3.75531 13.0003 4.5115 13.0003H12.4918C13.2477 13.0003 13.7303 12.194 13.3732 11.5278L9.38646 4.09127ZM8.49998 5.00031C9.05226 5.00031 9.49998 5.44803 9.49998 6.00031V8.66698C9.49998 9.21926 9.05226 9.66698 8.49998 9.66698C7.94769 9.66698 7.49998 9.21926 7.49998 8.66698V6.00031C7.49998 5.44803 7.94769 5.00031 8.49998 5.00031ZM7.49998 11.3336C7.49998 10.7814 7.94769 10.3336 8.49998 10.3336H8.50664C9.05893 10.3336 9.50664 10.7814 9.50664 11.3336C9.50664 11.8859 9.05893 12.3336 8.50664 12.3336H8.49998C7.94769 12.3336 7.49998 11.8859 7.49998 11.3336Z" fill="#FB2F4F"/>
</g>
</svg>
