<svg width="28" height="28" viewBox="0 0 28 28" fill="none" xmlns="http://www.w3.org/2000/svg">
<g id="person_add_FILL0_wght400_GRAD0_opsz48">
<path id="Vector" d="M20.7263 16.2069V12.6214H17.1409V10.9666H20.7263V7.38114H22.3812V10.9666H25.9666V12.6214H22.3812V16.2069H20.7263ZM10.5216 13.9729C9.30805 13.9729 8.31516 13.5867 7.54291 12.8145C6.77066 12.0422 6.38453 11.0493 6.38453 9.83579C6.38453 8.62225 6.77066 7.62936 7.54291 6.85711C8.31516 6.08486 9.30805 5.69873 10.5216 5.69873C11.7351 5.69873 12.728 6.08486 13.5003 6.85711C14.2725 7.62936 14.6586 8.62225 14.6586 9.83579C14.6586 11.0493 14.2725 12.0422 13.5003 12.8145C12.728 13.5867 11.7351 13.9729 10.5216 13.9729ZM1.69586 22.8262V20.2336C1.69586 19.5901 1.86134 19.0063 2.19231 18.4822C2.52327 17.9582 2.98295 17.5675 3.57133 17.3101C4.95035 16.7033 6.17768 16.2758 7.25331 16.0276C8.32895 15.7794 9.41837 15.6553 10.5216 15.6553C11.6248 15.6553 12.7142 15.7794 13.7899 16.0276C14.8655 16.2758 16.0836 16.7033 17.4443 17.3101C18.0326 17.5859 18.4969 17.9812 18.8371 18.496C19.1772 19.0109 19.3473 19.5901 19.3473 20.2336V22.8262H1.69586ZM3.35069 21.1713H17.6925V20.2336C17.6925 19.9394 17.6189 19.659 17.4718 19.3924C17.3248 19.1258 17.0949 18.9281 16.7823 18.7994C15.4953 18.1743 14.3966 17.7698 13.4865 17.5859C12.5763 17.402 11.588 17.3101 10.5216 17.3101C9.45515 17.3101 8.46685 17.4066 7.5567 17.5997C6.64654 17.7927 5.53873 18.1927 4.23326 18.7994C3.95745 18.9281 3.74141 19.1258 3.58512 19.3924C3.42883 19.659 3.35069 19.9394 3.35069 20.2336V21.1713ZM10.5216 12.318C11.2387 12.318 11.8317 12.0836 12.3005 11.6147C12.7694 11.1459 13.0038 10.5529 13.0038 9.83579C13.0038 9.1187 12.7694 8.52572 12.3005 8.05686C11.8317 7.58799 11.2387 7.35355 10.5216 7.35355C9.8045 7.35355 9.21152 7.58799 8.74265 8.05686C8.27379 8.52572 8.03935 9.1187 8.03935 9.83579C8.03935 10.5529 8.27379 11.1459 8.74265 11.6147C9.21152 12.0836 9.8045 12.318 10.5216 12.318Z" fill="#FCFCFC"/>
</g>
</svg>
