<svg width="17" height="17" viewBox="0 0 17 17" fill="none" xmlns="http://www.w3.org/2000/svg">
<g id="smile" clip-path="url(#clip0_6659_1056)">
<path id="Icon" fill-rule="evenodd" clip-rule="evenodd" d="M8.49998 3.07544C5.37037 3.07544 2.83331 5.61249 2.83331 8.74211C2.83331 11.8717 5.37037 14.4088 8.49998 14.4088C11.6296 14.4088 14.1666 11.8717 14.1666 8.74211C14.1666 5.61249 11.6296 3.07544 8.49998 3.07544ZM0.833313 8.74211C0.833313 4.50792 4.2658 1.07544 8.49998 1.07544C12.7342 1.07544 16.1666 4.50792 16.1666 8.74211C16.1666 12.9763 12.7342 16.4088 8.49998 16.4088C4.2658 16.4088 0.833313 12.9763 0.833313 8.74211ZM5.39972 6.94185C5.39972 6.22388 5.98175 5.64185 6.69972 5.64185C7.41769 5.64185 7.99972 6.22387 7.99972 6.94185C7.99972 7.65982 7.41769 8.24185 6.69972 8.24185C5.98175 8.24185 5.39972 7.65981 5.39972 6.94185ZM8.99998 6.94185C8.99998 6.22388 9.58201 5.64185 10.3 5.64185C11.018 5.64185 11.6 6.22388 11.6 6.94185C11.6 7.65981 11.018 8.24185 10.3 8.24185C9.58201 8.24185 8.99998 7.65981 8.99998 6.94185ZM5.04362 9.15909C5.54971 8.93797 6.13922 9.16898 6.36034 9.67507C6.72132 10.5012 7.5447 11.0754 8.49996 11.0754C9.45522 11.0754 10.2786 10.5012 10.6396 9.67507C10.8607 9.16898 11.4502 8.93797 11.9563 9.15909C12.4624 9.38021 12.6934 9.96972 12.4723 10.4758C11.8045 12.0042 10.2785 13.0754 8.49996 13.0754C6.72146 13.0754 5.19541 12.0042 4.52764 10.4758C4.30652 9.96972 4.53753 9.38021 5.04362 9.15909Z" fill="#75979B"/>
</g>
<defs>
<clipPath id="clip0_6659_1056">
<rect width="16" height="16" fill="white" transform="translate(0.5 0.742188)"/>
</clipPath>
</defs>
</svg>
